<svg width="141" height="49" viewBox="0 0 141 49" fill="none" xmlns="http://www.w3.org/2000/svg">
<path d="M9.74842 18.4182C10.6577 18.4182 11.5367 18.297 12.3853 18.0545L13.6583 20.1913H16.9544L14.9313 16.8497C16.0527 16.0769 16.9468 15.0691 17.6136 13.8264C18.2804 12.5837 18.6138 11.1971 18.6138 9.6665C18.6138 8.40868 18.3865 7.24936 17.9319 6.18854C17.4924 5.12772 16.871 4.21088 16.0679 3.438C15.2647 2.64996 14.3251 2.0362 13.2491 1.59672C12.1731 1.15724 11.0062 0.9375 9.74842 0.9375C8.4906 0.9375 7.3237 1.15724 6.24773 1.59672C5.17176 2.0362 4.23218 2.64996 3.42899 3.438C2.64095 4.21088 2.01962 5.12772 1.56498 6.18854C1.1255 7.24936 0.905762 8.40868 0.905762 9.6665C0.905762 10.9092 1.1255 12.0685 1.56498 13.1445C2.01962 14.2053 2.64853 15.1297 3.45172 15.9177C4.25491 16.7058 5.19449 17.3195 6.27046 17.759C7.34643 18.1985 8.50575 18.4182 9.74842 18.4182ZM9.74842 15.5995C8.6573 15.5995 7.67226 15.3419 6.79329 14.8266C5.92949 14.3114 5.24753 13.6067 4.74743 12.7126C4.24733 11.8184 3.99728 10.8031 3.99728 9.6665C3.99728 8.52991 4.24733 7.52214 4.74743 6.64318C5.24753 5.74906 5.92949 5.04437 6.79329 4.52912C7.67226 4.01387 8.6573 3.75624 9.74842 3.75624C10.8547 3.75624 11.8397 4.01387 12.7036 4.52912C13.5674 5.04437 14.2493 5.74906 14.7494 6.64318C15.2495 7.52214 15.4996 8.52991 15.4996 9.6665C15.4996 10.6515 15.3101 11.5457 14.9313 12.3489C14.5676 13.1369 14.0599 13.7961 13.4082 14.3265L11.6124 11.3714H8.38452L10.8623 15.5086C10.4986 15.5692 10.1273 15.5995 9.74842 15.5995Z" fill="white"/>
<path d="M26.5039 18.4182C27.7618 18.4182 28.8605 18.1379 29.8 17.5772C30.7548 17.0013 31.4216 16.2739 31.8004 15.3949L29.3909 14.2129C29.1181 14.6826 28.7392 15.0691 28.2543 15.3722C27.7845 15.6601 27.2086 15.8041 26.5267 15.8041C25.6326 15.8041 24.8824 15.5313 24.2762 14.9857C23.67 14.4402 23.3215 13.7128 23.2306 12.8035H32.1414C32.202 12.6368 32.2399 12.4474 32.2551 12.2352C32.2854 12.0079 32.3005 11.7806 32.3005 11.5532C32.3005 10.447 32.0656 9.43919 31.5959 8.52991C31.1261 7.62064 30.4441 6.89323 29.55 6.34766C28.6559 5.78694 27.5648 5.50659 26.2766 5.50659C25.1249 5.50659 24.0792 5.78694 23.1396 6.34766C22.2152 6.90838 21.4802 7.67368 20.9347 8.64357C20.4042 9.59831 20.139 10.697 20.139 11.9397C20.139 13.1369 20.4042 14.228 20.9347 15.2131C21.4651 16.1981 22.2076 16.9786 23.1624 17.5544C24.1171 18.1303 25.231 18.4182 26.5039 18.4182ZM26.2766 7.96162C27.0647 7.96162 27.7163 8.20409 28.2316 8.68904C28.762 9.15883 29.0575 9.77258 29.1181 10.5303H23.2988C23.4655 9.71197 23.814 9.08305 24.3444 8.64357C24.89 8.18894 25.534 7.96162 26.2766 7.96162Z" fill="white"/>
<path d="M39.9491 18.4182C41.207 18.4182 42.3057 18.1379 43.2452 17.5772C44.2 17.0013 44.8668 16.2739 45.2456 15.3949L42.8361 14.2129C42.5633 14.6826 42.1844 15.0691 41.6995 15.3722C41.2297 15.6601 40.6538 15.8041 39.9719 15.8041C39.0777 15.8041 38.3276 15.5313 37.7214 14.9857C37.1152 14.4402 36.7667 13.7128 36.6758 12.8035H45.5866C45.6472 12.6368 45.6851 12.4474 45.7003 12.2352C45.7306 12.0079 45.7457 11.7806 45.7457 11.5532C45.7457 10.447 45.5108 9.43919 45.0411 8.52991C44.5713 7.62064 43.8893 6.89323 42.9952 6.34766C42.1011 5.78694 41.0099 5.50659 39.7218 5.50659C38.5701 5.50659 37.5244 5.78694 36.5848 6.34766C35.6604 6.90838 34.9254 7.67368 34.3798 8.64357C33.8494 9.59831 33.5842 10.697 33.5842 11.9397C33.5842 13.1369 33.8494 14.228 34.3798 15.2131C34.9103 16.1981 35.6528 16.9786 36.6076 17.5544C37.5623 18.1303 38.6762 18.4182 39.9491 18.4182ZM39.7218 7.96162C40.5098 7.96162 41.1615 8.20409 41.6767 8.68904C42.2072 9.15883 42.5027 9.77258 42.5633 10.5303H36.7439C36.9107 9.71197 37.2592 9.08305 37.7896 8.64357C38.3352 8.18894 38.9792 7.96162 39.7218 7.96162Z" fill="white"/>
<path d="M47.5295 22.6918H50.5074V16.9634C50.962 17.4332 51.5152 17.7969 52.1668 18.0545C52.8185 18.297 53.5231 18.4182 54.2809 18.4182C55.4781 18.4182 56.5465 18.1379 57.486 17.5772C58.4256 17.0013 59.1682 16.2284 59.7138 15.2585C60.2593 14.2735 60.5321 13.1748 60.5321 11.9624C60.5321 10.75 60.2593 9.65892 59.7138 8.68904C59.1682 7.70399 58.4256 6.93111 57.486 6.37039C56.5465 5.79452 55.4857 5.50659 54.3036 5.50659C53.4549 5.50659 52.6896 5.65813 52.0077 5.96122C51.3257 6.26431 50.765 6.68864 50.3255 7.2342V5.77937H47.5295V22.6918ZM53.9399 15.6904C53.2882 15.6904 52.6972 15.5313 52.1668 15.2131C51.6516 14.8948 51.2424 14.4553 50.9393 13.8946C50.6514 13.3339 50.5074 12.6898 50.5074 11.9624C50.5074 11.235 50.6514 10.5909 50.9393 10.0302C51.2424 9.46949 51.6516 9.03001 52.1668 8.71177C52.6972 8.39352 53.2882 8.2344 53.9399 8.2344C54.6218 8.2344 55.2205 8.4011 55.7357 8.7345C56.2661 9.05274 56.6829 9.49223 56.986 10.0529C57.289 10.6137 57.4406 11.2501 57.4406 11.9624C57.4406 12.6747 57.289 13.3187 56.986 13.8946C56.6829 14.4553 56.2661 14.8948 55.7357 15.2131C55.2205 15.5313 54.6218 15.6904 53.9399 15.6904Z" fill="white"/>
<path d="M68.1937 18.4182C69.4515 18.4182 70.5502 18.1379 71.4898 17.5772C72.4445 17.0013 73.1113 16.2739 73.4902 15.3949L71.0806 14.2129C70.8078 14.6826 70.429 15.0691 69.944 15.3722C69.4742 15.6601 68.8984 15.8041 68.2164 15.8041C67.3223 15.8041 66.5721 15.5313 65.966 14.9857C65.3598 14.4402 65.0112 13.7128 64.9203 12.8035H73.8311C73.8918 12.6368 73.9296 12.4474 73.9448 12.2352C73.9751 12.0079 73.9903 11.7806 73.9903 11.5532C73.9903 10.447 73.7554 9.43919 73.2856 8.52991C72.8158 7.62064 72.1338 6.89323 71.2397 6.34766C70.3456 5.78694 69.2545 5.50659 67.9664 5.50659C66.8146 5.50659 65.7689 5.78694 64.8294 6.34766C63.9049 6.90838 63.1699 7.67368 62.6244 8.64357C62.094 9.59831 61.8288 10.697 61.8288 11.9397C61.8288 13.1369 62.094 14.228 62.6244 15.2131C63.1548 16.1981 63.8974 16.9786 64.8521 17.5544C65.8068 18.1303 66.9207 18.4182 68.1937 18.4182ZM67.9664 7.96162C68.7544 7.96162 69.406 8.20409 69.9213 8.68904C70.4517 9.15883 70.7472 9.77258 70.8078 10.5303H64.9885C65.1552 9.71197 65.5037 9.08305 66.0341 8.64357C66.5797 8.18894 67.2238 7.96162 67.9664 7.96162Z" fill="white"/>
<path d="M75.7741 18.1455H78.7519V11.2577C78.7519 10.3181 79.0096 9.59073 79.5248 9.07548C80.0552 8.54507 80.7372 8.27986 81.5707 8.27986H82.6391V5.64298H81.9116C81.1539 5.64298 80.4871 5.77937 79.9112 6.05215C79.3354 6.32493 78.8883 6.81745 78.5701 7.52972V5.77937H75.7741V18.1455Z" fill="white"/>
<path d="M87.6194 18.1455H97.9623V15.4176H90.7109V1.21028H87.6194V18.1455Z" fill="white"/>
<path d="M105.285 18.4182C106.482 18.4182 107.573 18.1455 108.558 17.5999C109.543 17.0392 110.332 16.2739 110.923 15.304C111.514 14.3189 111.809 13.2051 111.809 11.9624C111.809 10.7197 111.514 9.61346 110.923 8.64357C110.347 7.67368 109.566 6.90838 108.581 6.34766C107.596 5.78694 106.497 5.50659 105.285 5.50659C104.058 5.50659 102.951 5.78694 101.966 6.34766C100.981 6.90838 100.193 7.67368 99.6021 8.64357C99.0263 9.61346 98.7383 10.7197 98.7383 11.9624C98.7383 13.2051 99.0263 14.3114 99.6021 15.2813C100.193 16.2511 100.981 17.0164 101.966 17.5772C102.966 18.1379 104.073 18.4182 105.285 18.4182ZM105.285 15.6904C104.618 15.6904 104.02 15.5313 103.489 15.2131C102.974 14.8948 102.565 14.4553 102.262 13.8946C101.974 13.3187 101.83 12.6747 101.83 11.9624C101.83 11.2501 101.974 10.6137 102.262 10.0529C102.565 9.49223 102.974 9.05274 103.489 8.7345C104.02 8.4011 104.618 8.2344 105.285 8.2344C105.952 8.2344 106.535 8.4011 107.035 8.7345C107.551 9.05274 107.952 9.49223 108.24 10.0529C108.543 10.6137 108.695 11.2501 108.695 11.9624C108.695 12.6747 108.543 13.3187 108.24 13.8946C107.952 14.4553 107.551 14.8948 107.035 15.2131C106.535 15.5313 105.952 15.6904 105.285 15.6904Z" fill="white"/>
<path d="M119.595 23.1464C120.777 23.1464 121.823 22.904 122.732 22.419C123.641 21.9341 124.353 21.2673 124.869 20.4186C125.384 19.57 125.642 18.6077 125.642 17.5317V5.77937H122.823V7.21147C121.883 6.07488 120.618 5.50659 119.027 5.50659C117.89 5.50659 116.875 5.77179 115.981 6.3022C115.086 6.81745 114.382 7.52972 113.867 8.43899C113.351 9.34826 113.094 10.3863 113.094 11.5532C113.094 12.705 113.351 13.7431 113.867 14.6675C114.382 15.5919 115.094 16.3193 116.003 16.8497C116.913 17.3802 117.943 17.6454 119.095 17.6454C120.595 17.6454 121.785 17.1604 122.664 16.1905V17.5317C122.664 18.441 122.376 19.1457 121.8 19.6458C121.224 20.161 120.489 20.4186 119.595 20.4186C118.807 20.4186 118.14 20.2368 117.595 19.8731C117.064 19.5245 116.708 19.0623 116.526 18.4864L113.753 19.5321C114.147 20.6232 114.867 21.4946 115.912 22.1462C116.973 22.813 118.201 23.1464 119.595 23.1464ZM119.459 14.8948C118.504 14.8948 117.716 14.5841 117.094 13.9628C116.488 13.3263 116.185 12.5307 116.185 11.576C116.185 10.9395 116.322 10.3712 116.594 9.87109C116.882 9.35583 117.276 8.95424 117.776 8.6663C118.277 8.37837 118.837 8.2344 119.459 8.2344C120.398 8.2344 121.163 8.55264 121.754 9.18913C122.361 9.81047 122.664 10.6061 122.664 11.576C122.664 12.5459 122.361 13.3415 121.754 13.9628C121.163 14.5841 120.398 14.8948 119.459 14.8948Z" fill="white"/>
<path d="M133.996 18.4182C135.193 18.4182 136.284 18.1455 137.269 17.5999C138.254 17.0392 139.042 16.2739 139.633 15.304C140.224 14.3189 140.52 13.2051 140.52 11.9624C140.52 10.7197 140.224 9.61346 139.633 8.64357C139.057 7.67368 138.277 6.90838 137.292 6.34766C136.307 5.78694 135.208 5.50659 133.996 5.50659C132.768 5.50659 131.662 5.78694 130.677 6.34766C129.692 6.90838 128.904 7.67368 128.313 8.64357C127.737 9.61346 127.449 10.7197 127.449 11.9624C127.449 13.2051 127.737 14.3114 128.313 15.2813C128.904 16.2511 129.692 17.0164 130.677 17.5772C131.677 18.1379 132.783 18.4182 133.996 18.4182ZM133.996 15.6904C133.329 15.6904 132.73 15.5313 132.2 15.2131C131.685 14.8948 131.276 14.4553 130.972 13.8946C130.685 13.3187 130.541 12.6747 130.541 11.9624C130.541 11.2501 130.685 10.6137 130.972 10.0529C131.276 9.49223 131.685 9.05274 132.2 8.7345C132.73 8.4011 133.329 8.2344 133.996 8.2344C134.663 8.2344 135.246 8.4011 135.746 8.7345C136.261 9.05274 136.663 9.49223 136.951 10.0529C137.254 10.6137 137.406 11.2501 137.406 11.9624C137.406 12.6747 137.254 13.3187 136.951 13.8946C136.663 14.4553 136.261 14.8948 135.746 15.2131C135.246 15.5313 134.663 15.6904 133.996 15.6904Z" fill="white"/>
<path d="M60.5628 41.3934C60.0562 41.3934 59.5962 41.2734 59.1828 41.0334C58.7695 40.7868 58.4395 40.4534 58.1928 40.0334C57.9528 39.6068 57.8328 39.1234 57.8328 38.5834C57.8328 38.0501 57.9528 37.5734 58.1928 37.1534C58.4328 36.7334 58.7562 36.4034 59.1628 36.1634C59.5762 35.9168 60.0428 35.7934 60.5628 35.7934C61.0828 35.7934 61.5462 35.9134 61.9528 36.1534C62.3662 36.3934 62.6895 36.7234 62.9228 37.1434C63.1628 37.5634 63.2828 38.0434 63.2828 38.5834C63.2828 39.1301 63.1595 39.6168 62.9128 40.0434C62.6662 40.4634 62.3362 40.7934 61.9228 41.0334C61.5162 41.2734 61.0628 41.3934 60.5628 41.3934ZM60.5628 40.6434C60.9228 40.6434 61.2462 40.5534 61.5328 40.3734C61.8262 40.1934 62.0562 39.9468 62.2228 39.6334C62.3962 39.3201 62.4828 38.9701 62.4828 38.5834C62.4828 38.1968 62.3962 37.8501 62.2228 37.5434C62.0562 37.2368 61.8262 36.9934 61.5328 36.8134C61.2462 36.6334 60.9228 36.5434 60.5628 36.5434C60.2028 36.5434 59.8762 36.6334 59.5828 36.8134C59.2962 36.9934 59.0662 37.2368 58.8928 37.5434C58.7195 37.8501 58.6328 38.1968 58.6328 38.5834C58.6328 38.9701 58.7195 39.3201 58.8928 39.6334C59.0662 39.9468 59.2962 40.1934 59.5828 40.3734C59.8762 40.5534 60.2028 40.6434 60.5628 40.6434ZM64.3056 41.2734V35.9134H65.0556V36.9534L64.8856 36.9134C65.0189 36.5668 65.2356 36.2934 65.5356 36.0934C65.8422 35.8934 66.1956 35.7934 66.5956 35.7934C66.9756 35.7934 67.3156 35.8801 67.6156 36.0534C67.9222 36.2268 68.1622 36.4668 68.3356 36.7734C68.5156 37.0734 68.6056 37.4134 68.6056 37.7934V41.2734H67.8556V38.0834C67.8556 37.7568 67.7956 37.4801 67.6756 37.2534C67.5622 37.0268 67.3989 36.8534 67.1856 36.7334C66.9789 36.6068 66.7389 36.5434 66.4656 36.5434C66.1922 36.5434 65.9489 36.6068 65.7356 36.7334C65.5222 36.8534 65.3556 37.0301 65.2356 37.2634C65.1156 37.4901 65.0556 37.7634 65.0556 38.0834V41.2734H64.3056ZM72.5372 41.2734V34.5734H70.4772V33.8234H75.3772V34.5734H73.3372V41.2734H72.5372ZM75.3587 41.2734V35.9134H76.1087V36.7934L76.0087 36.6634C76.1354 36.4101 76.3254 36.2101 76.5787 36.0634C76.8387 35.9168 77.152 35.8434 77.5187 35.8434H77.8587V36.5934H77.3887C77.002 36.5934 76.692 36.7134 76.4587 36.9534C76.2254 37.1934 76.1087 37.5334 76.1087 37.9734V41.2734H75.3587ZM80.3376 41.3934C79.9643 41.3934 79.6243 41.3068 79.3176 41.1334C79.0109 40.9534 78.7676 40.7068 78.5876 40.3934C78.4143 40.0734 78.3276 39.7068 78.3276 39.2934V35.9134H79.0776V39.2034C79.0776 39.4901 79.1343 39.7434 79.2476 39.9634C79.3676 40.1768 79.5309 40.3434 79.7376 40.4634C79.9509 40.5834 80.1943 40.6434 80.4676 40.6434C80.7409 40.6434 80.9843 40.5834 81.1976 40.4634C81.4109 40.3368 81.5776 40.1601 81.6976 39.9334C81.8176 39.7001 81.8776 39.4234 81.8776 39.1034V35.9134H82.6276V41.2734H81.8776V40.2334L82.0476 40.2734C81.9209 40.6201 81.7043 40.8934 81.3976 41.0934C81.0909 41.2934 80.7376 41.3934 80.3376 41.3934ZM85.73 41.3934C85.2167 41.3934 84.7667 41.2634 84.38 41.0034C83.9934 40.7434 83.7134 40.3901 83.54 39.9434L84.17 39.6434C84.3234 39.9701 84.5367 40.2301 84.81 40.4234C85.09 40.6168 85.3967 40.7134 85.73 40.7134C86.05 40.7134 86.32 40.6368 86.54 40.4834C86.76 40.3234 86.87 40.1168 86.87 39.8634C86.87 39.6768 86.8167 39.5301 86.71 39.4234C86.6034 39.3101 86.48 39.2234 86.34 39.1634C86.2 39.1034 86.0767 39.0601 85.97 39.0334L85.2 38.8134C84.7067 38.6734 84.35 38.4768 84.13 38.2234C83.91 37.9701 83.8 37.6768 83.8 37.3434C83.8 37.0301 83.88 36.7568 84.04 36.5234C84.2 36.2901 84.4167 36.1101 84.69 35.9834C84.9634 35.8568 85.2667 35.7934 85.6 35.7934C86.0534 35.7934 86.4634 35.9134 86.83 36.1534C87.2034 36.3868 87.4667 36.7134 87.62 37.1334L86.98 37.4334C86.8467 37.1334 86.6534 36.9001 86.4 36.7334C86.1534 36.5601 85.8767 36.4734 85.57 36.4734C85.27 36.4734 85.03 36.5501 84.85 36.7034C84.67 36.8568 84.58 37.0501 84.58 37.2834C84.58 37.4634 84.6267 37.6068 84.72 37.7134C84.8134 37.8201 84.92 37.9001 85.04 37.9534C85.1667 38.0068 85.2767 38.0468 85.37 38.0734L86.26 38.3334C86.6934 38.4601 87.03 38.6568 87.27 38.9234C87.5167 39.1901 87.64 39.5034 87.64 39.8634C87.64 40.1568 87.5567 40.4201 87.39 40.6534C87.23 40.8868 87.0067 41.0701 86.72 41.2034C86.4334 41.3301 86.1034 41.3934 85.73 41.3934ZM90.7079 41.3334C90.2279 41.3334 89.8579 41.1934 89.5979 40.9134C89.3379 40.6334 89.2079 40.2334 89.2079 39.7134V36.6634H88.2179V35.9134H88.4679C88.6946 35.9134 88.8746 35.8401 89.0079 35.6934C89.1412 35.5401 89.2079 35.3501 89.2079 35.1234V34.6734H89.9579V35.9134H91.1379V36.6634H89.9579V39.7134C89.9579 39.8934 89.9846 40.0534 90.0379 40.1934C90.0912 40.3268 90.1812 40.4334 90.3079 40.5134C90.4412 40.5934 90.6179 40.6334 90.8379 40.6334C90.8912 40.6334 90.9546 40.6301 91.0279 40.6234C91.1012 40.6168 91.1646 40.6101 91.2179 40.6034V41.2734C91.1379 41.2934 91.0479 41.3068 90.9479 41.3134C90.8479 41.3268 90.7679 41.3334 90.7079 41.3334ZM92.2349 43.2734V35.9134H92.9849V37.1134L92.8649 36.9034C93.0782 36.5634 93.3615 36.2934 93.7149 36.0934C94.0749 35.8934 94.4849 35.7934 94.9449 35.7934C95.4515 35.7934 95.9015 35.9168 96.2949 36.1634C96.6949 36.4034 97.0082 36.7334 97.2349 37.1534C97.4682 37.5734 97.5849 38.0534 97.5849 38.5934C97.5849 39.1268 97.4682 39.6068 97.2349 40.0334C97.0082 40.4534 96.6949 40.7868 96.2949 41.0334C95.9015 41.2734 95.4515 41.3934 94.9449 41.3934C94.4849 41.3934 94.0682 41.2901 93.6949 41.0834C93.3282 40.8701 93.0515 40.5701 92.8649 40.1834L92.9849 40.0734V43.2734H92.2349ZM94.9049 40.6434C95.2649 40.6434 95.5849 40.5534 95.8649 40.3734C96.1515 40.1934 96.3749 39.9501 96.5349 39.6434C96.7015 39.3301 96.7849 38.9801 96.7849 38.5934C96.7849 38.2001 96.7015 37.8501 96.5349 37.5434C96.3749 37.2368 96.1515 36.9934 95.8649 36.8134C95.5849 36.6334 95.2649 36.5434 94.9049 36.5434C94.5449 36.5434 94.2182 36.6334 93.9249 36.8134C93.6382 36.9934 93.4082 37.2401 93.2349 37.5534C93.0682 37.8601 92.9849 38.2068 92.9849 38.5934C92.9849 38.9801 93.0682 39.3301 93.2349 39.6434C93.4082 39.9501 93.6382 40.1934 93.9249 40.3734C94.2182 40.5534 94.5449 40.6434 94.9049 40.6434ZM98.6048 41.2734V35.9134H99.3548V41.2734H98.6048ZM98.6048 34.9234V33.8234H99.3548V34.9234H98.6048ZM100.59 41.2734V33.7034H101.34V41.2734H100.59ZM105.085 41.3934C104.578 41.3934 104.118 41.2734 103.705 41.0334C103.292 40.7868 102.962 40.4534 102.715 40.0334C102.475 39.6068 102.355 39.1234 102.355 38.5834C102.355 38.0501 102.475 37.5734 102.715 37.1534C102.955 36.7334 103.278 36.4034 103.685 36.1634C104.098 35.9168 104.565 35.7934 105.085 35.7934C105.605 35.7934 106.068 35.9134 106.475 36.1534C106.888 36.3934 107.212 36.7234 107.445 37.1434C107.685 37.5634 107.805 38.0434 107.805 38.5834C107.805 39.1301 107.682 39.6168 107.435 40.0434C107.188 40.4634 106.858 40.7934 106.445 41.0334C106.038 41.2734 105.585 41.3934 105.085 41.3934ZM105.085 40.6434C105.445 40.6434 105.768 40.5534 106.055 40.3734C106.348 40.1934 106.578 39.9468 106.745 39.6334C106.918 39.3201 107.005 38.9701 107.005 38.5834C107.005 38.1968 106.918 37.8501 106.745 37.5434C106.578 37.2368 106.348 36.9934 106.055 36.8134C105.768 36.6334 105.445 36.5434 105.085 36.5434C104.725 36.5434 104.398 36.6334 104.105 36.8134C103.818 36.9934 103.588 37.2368 103.415 37.5434C103.242 37.8501 103.155 38.1968 103.155 38.5834C103.155 38.9701 103.242 39.3201 103.415 39.6334C103.588 39.9468 103.818 40.1934 104.105 40.3734C104.398 40.5534 104.725 40.6434 105.085 40.6434ZM110.78 41.3334C110.3 41.3334 109.93 41.1934 109.67 40.9134C109.41 40.6334 109.28 40.2334 109.28 39.7134V36.6634H108.29V35.9134H108.54C108.767 35.9134 108.947 35.8401 109.08 35.6934C109.214 35.5401 109.28 35.3501 109.28 35.1234V34.6734H110.03V35.9134H111.21V36.6634H110.03V39.7134C110.03 39.8934 110.057 40.0534 110.11 40.1934C110.164 40.3268 110.254 40.4334 110.38 40.5134C110.514 40.5934 110.69 40.6334 110.91 40.6334C110.964 40.6334 111.027 40.6301 111.1 40.6234C111.174 40.6168 111.237 40.6101 111.29 40.6034V41.2734C111.21 41.2934 111.12 41.3068 111.02 41.3134C110.92 41.3268 110.84 41.3334 110.78 41.3334Z" fill="#5B697B"/>
<rect x="0.905762" y="32.8711" width="7.88836" height="7.88836" fill="#4CB99F"/>
<rect x="11.7516" y="32.8711" width="7.88836" height="7.88836" fill="#4CB99F"/>
<rect x="22.5985" y="32.8711" width="7.88836" height="7.88836" fill="#4CB99F"/>
<rect x="33.4454" y="32.8711" width="7.88836" height="7.88836" fill="#4CB99F"/>
<rect x="44.2922" y="32.8711" width="7.88836" height="7.88836" fill="#DEE4EB"/>
<rect x="44.2922" y="32.8711" width="3.94418" height="7.88836" fill="#4CB99F"/>
<g clip-path="url(#clip0_1584_460)">
<path d="M4.85023 38.2894L6.13554 37.9637L6.67268 39.6188L4.85023 38.2894ZM7.80836 36.1501H5.54563L4.85023 34.0195L4.15482 36.1501H1.89209L3.72342 37.4707L3.02801 39.6013L4.85935 38.2807L5.98615 37.4707L7.80836 36.1501Z" fill="white"/>
</g>
<g clip-path="url(#clip1_1584_460)">
<path d="M15.6961 38.2894L16.9814 37.9637L17.5186 39.6188L15.6961 38.2894ZM18.6542 36.1501H16.3915L15.6961 34.0195L15.0007 36.1501H12.738L14.5693 37.4707L13.8739 39.6013L15.7052 38.2807L16.832 37.4707L18.6542 36.1501Z" fill="white"/>
</g>
<g clip-path="url(#clip2_1584_460)">
<path d="M26.543 38.2894L27.8283 37.9637L28.3654 39.6188L26.543 38.2894ZM29.5011 36.1501H27.2384L26.543 34.0195L25.8476 36.1501H23.5848L25.4162 37.4707L24.7208 39.6013L26.5521 38.2807L27.6789 37.4707L29.5011 36.1501Z" fill="white"/>
</g>
<g clip-path="url(#clip3_1584_460)">
<path d="M37.3889 38.2894L38.6742 37.9637L39.2113 39.6188L37.3889 38.2894ZM40.347 36.1501H38.0843L37.3889 34.0195L36.6935 36.1501H34.4307L36.2621 37.4707L35.5666 39.6013L37.398 38.2807L38.5248 37.4707L40.347 36.1501Z" fill="white"/>
</g>
<g clip-path="url(#clip4_1584_460)">
<path d="M48.2357 38.2894L49.521 37.9637L50.0582 39.6188L48.2357 38.2894ZM51.1939 36.1501H48.9311L48.2357 34.0195L47.5403 36.1501H45.2776L47.1089 37.4707L46.4135 39.6013L48.2448 38.2807L49.3716 37.4707L51.1939 36.1501Z" fill="white"/>
</g>
<defs>
<clipPath id="clip0_1584_460">
<rect width="5.91627" height="5.91627" fill="white" transform="translate(1.89209 33.8594)"/>
</clipPath>
<clipPath id="clip1_1584_460">
<rect width="5.91627" height="5.91627" fill="white" transform="translate(12.738 33.8594)"/>
</clipPath>
<clipPath id="clip2_1584_460">
<rect width="5.91627" height="5.91627" fill="white" transform="translate(23.5848 33.8594)"/>
</clipPath>
<clipPath id="clip3_1584_460">
<rect width="5.91627" height="5.91627" fill="white" transform="translate(34.4307 33.8594)"/>
</clipPath>
<clipPath id="clip4_1584_460">
<rect width="5.91627" height="5.91627" fill="white" transform="translate(45.2776 33.8594)"/>
</clipPath>
</defs>
</svg>
